<svg xmlns="http://www.w3.org/2000/svg" width="1080" height="600" viewBox="0 0 1080 600">
  <defs>
    <linearGradient id="g" x1="0" y1="0" x2="1" y2="1">
      <stop offset="0" stop-color="#ffd1e3"/>
      <stop offset="1" stop-color="#ffb6d4"/>
    </linearGradient>
    <filter id="soft" x="-20%" y="-20%" width="140%" height="140%">
      <feGaussianBlur stdDeviation="8" result="b"/>
      <feColorMatrix in="b" type="matrix"
        values="1 0 0 0 0
                0 1 0 0 0
                0 0 1 0 0
                0 0 0 0.25 0" result="s"/>
      <feMerge>
        <feMergeNode in="s"/>
        <feMergeNode in="SourceGraphic"/>
      </feMerge>
    </filter>
  </defs>

  <rect width="1080" height="600" fill="transparent"/>

  <!-- big heart -->
  <g transform="translate(540 305)" filter="url(#soft)">
    <path d="M0 200c-110-100-210-185-210-305 0-95 70-165 170-165 70 0 130 35 160 92 30-57 90-92 160-92 100 0 170 70 170 165 0 120-100 205-210 305L0 420l-40-40z"
      fill="url(#g)" stroke="#ff9fc8" stroke-width="10" opacity="0.95"/>
    <circle cx="-140" cy="-95" r="26" fill="#fff" opacity="0.35"/>
  </g>

  <!-- two cute blobs (line style) -->
  <g transform="translate(270 345)">
    <path d="M0 90c-45 0-80-30-80-70 0-44 42-80 95-80 60 0 95 38 95 85 0 40-30 65-60 65-22 0-32-8-40-18-6 10-18 18-40 18z"
      fill="#fff" stroke="#3a2c34" stroke-width="10" stroke-linecap="round" stroke-linejoin="round" opacity="0.98"/>
    <circle cx="-25" cy="10" r="10" fill="#3a2c34"/>
    <circle cx="15" cy="10" r="10" fill="#3a2c34"/>
    <path d="M-6 32c6 8 12 8 18 0" fill="none" stroke="#ff9bbf" stroke-width="10" stroke-linecap="round"/>
    <circle cx="-55" cy="28" r="10" fill="#ffb6d4" opacity="0.65"/>
    <circle cx="45" cy="28" r="10" fill="#ffb6d4" opacity="0.65"/>
  </g>

  <g transform="translate(810 345)">
    <path d="M0 90c-45 0-80-30-80-70 0-44 42-80 95-80 60 0 95 38 95 85 0 40-30 65-60 65-22 0-32-8-40-18-6 10-18 18-40 18z"
      fill="#fff" stroke="#3a2c34" stroke-width="10" stroke-linecap="round" stroke-linejoin="round" opacity="0.98"/>
    <circle cx="-25" cy="10" r="10" fill="#2d6cdf"/>
    <circle cx="15" cy="10" r="10" fill="#2d6cdf"/>
    <path d="M-8 32c5 7 10 7 15 0" fill="none" stroke="#ff9bbf" stroke-width="10" stroke-linecap="round"/>
    <circle cx="-55" cy="28" r="10" fill="#ffb6d4" opacity="0.65"/>
    <circle cx="45" cy="28" r="10" fill="#ffb6d4" opacity="0.65"/>
  </g>

  <!-- sparkles -->
  <g fill="#ff9fc8" opacity="0.65">
    <path d="M120 150l12 26 26 12-26 12-12 26-12-26-26-12 26-12z"/>
    <path d="M950 130l10 22 22 10-22 10-10 22-10-22-22-10 22-10z"/>
    <path d="M540 70l10 22 22 10-22 10-10 22-10-22-22-10 22-10z"/>
  </g>
</svg>
