<svg xmlns="http://www.w3.org/2000/svg" width="512" height="512" viewBox="0 0 512 512">
  <defs>
    <linearGradient id="cardBg" x1="0" y1="0" x2="1" y2="1">
      <stop offset="0" stop-color="#2d8a4e"/>
      <stop offset="1" stop-color="#1a5c32"/>
    </linearGradient>
    <filter id="shadow" x="-20%" y="-20%" width="140%" height="140%">
      <feGaussianBlur stdDeviation="8" result="b"/>
      <feColorMatrix in="b" type="matrix"
        values="1 0 0 0 0
                0 1 0 0 0
                0 0 1 0 0
                0 0 0 0.3 0" result="s"/>
      <feMerge>
        <feMergeNode in="s"/>
        <feMergeNode in="SourceGraphic"/>
      </feMerge>
    </filter>
  </defs>

  <!-- Ìo -->
  <rect width="512" height="512" rx="90" fill="url(#cardBg)"/>
  
  <!-- 	 QKL -->
  <g filter="url(#shadow)">
    <!-- æ¹„L -->
    <g transform="translate(100 130) rotate(-15)">
      <rect width="100" height="140" rx="10" fill="#fff" stroke="#ddd" stroke-width="2"/>
      <text x="15" y="35" font-family="Arial" font-size="28" font-weight="bold" fill="#e53935">A</text>
      <text x="15" y="58" font-family="Arial" font-size="20" fill="#e53935">e</text>
    </g>
    
    <!-- -ô„L -->
    <g transform="translate(180 110)">
      <rect width="100" height="140" rx="10" fill="#fff" stroke="#ddd" stroke-width="2"/>
      <text x="15" y="35" font-family="Arial" font-size="28" font-weight="bold" fill="#000">K</text>
      <text x="15" y="58" font-family="Arial" font-size="20" fill="#000">`</text>
    </g>
    
    <!-- ó¹„L -->
    <g transform="translate(260 130) rotate(15)">
      <rect width="100" height="140" rx="10" fill="#fff" stroke="#ddd" stroke-width="2"/>
      <text x="15" y="35" font-family="Arial" font-size="28" font-weight="bold" fill="#e53935">2</text>
      <text x="15" y="58" font-family="Arial" font-size="20" fill="#e53935">f</text>
    </g>
  </g>
  
  <!-- ‹ 0;×	 -->
  <g transform="translate(206 290)">
    <path d="M50 60L10 30 25 60 50 20 75 60 90 30 50 60z" fill="#ffd700" stroke="#ff9800" stroke-width="3"/>
    <rect x="10" y="55" width="80" height="20" rx="3" fill="#ffd700" stroke="#ff9800" stroke-width="3"/>
    <circle cx="25" cy="35" r="6" fill="#ff5722"/>
    <circle cx="50" cy="25" r="6" fill="#ff5722"/>
    <circle cx="75" cy="35" r="6" fill="#ff5722"/>
  </g>
  
  <!-- ‡W -->
  <text x="256" y="420" text-anchor="middle" font-family="Arial" font-size="42" font-weight="bold" fill="#fff">—0;</text>
</svg>
