<svg xmlns="http://www.w3.org/2000/svg" viewBox="0 0 64 64" fill="none" stroke="#333" stroke-width="2.5" stroke-linecap="round" stroke-linejoin="round">
  <path d="M44 28c0-8.8-9-16-20-16S4 19.2 4 28c0 4.4 2.2 8.4 5.8 11.4L8 46l7.6-4.2c2.6.8 5.4 1.2 8.4 1.2"/>
  <path d="M60 40c0-6.6-6.7-12-15-12-8.3 0-15 5.4-15 12s6.7 12 15 12c2.2 0 4.4-.3 6.3-.9L58 54l-1.4-5.4c2.2-2.2 3.4-5 3.4-8.1z"/>
  <circle cx="17" cy="28" r="2" fill="#333" stroke="none"/>
  <circle cx="24" cy="28" r="2" fill="#333" stroke="none"/>
  <circle cx="31" cy="28" r="2" fill="#333" stroke="none"/>
  <circle cx="39" cy="42" r="1.5" fill="#333" stroke="none"/>
  <circle cx="45" cy="42" r="1.5" fill="#333" stroke="none"/>
  <circle cx="51" cy="42" r="1.5" fill="#333" stroke="none"/>
</svg>
